<?xml version="1.0" standalone="no"?>
<!DOCTYPE svg PUBLIC "-//W3C//DTD SVG 20010904//EN"
 "http://www.w3.org/TR/2001/REC-SVG-20010904/DTD/svg10.dtd">
<svg version="1.0" xmlns="http://www.w3.org/2000/svg"
 width="128.000000pt" height="128.000000pt" viewBox="0 0 128.000000 128.000000"
 preserveAspectRatio="xMidYMid meet">
<metadata>
Created by potrace 1.11, written by Peter Selinger 2001-2013
</metadata>
<g transform="translate(0.000000,128.000000) scale(0.100000,-0.100000)"
fill="#000000" stroke="none">
<path d="M253 1029 c-77 -22 -157 -143 -189 -285 -22 -98 -28 -367 -9 -419 26
-73 86 -103 149 -73 14 6 46 43 70 82 25 39 60 86 79 104 32 32 34 32 63 17
66 -34 144 -3 179 73 17 37 23 42 52 42 29 0 33 -3 33 -25 0 -41 57 -95 107
-102 43 -6 103 11 103 29 0 5 15 -7 34 -26 31 -33 44 -51 107 -148 41 -63 105
-77 158 -32 45 38 54 85 48 259 -7 232 -46 364 -130 449 -70 69 -124 79 -246
45 -58 -17 -105 -22 -201 -23 -135 -1 -188 5 -264 29 -54 17 -95 18 -143 4z"/>
<path d="M429 418 c-1 -2 -2 -36 -4 -75 -2 -70 -2 -73 21 -73 17 0 24 6 26 28
l4 27 14 -27 c9 -19 21 -28 37 -28 27 0 30 19 5 45 -17 18 -17 20 0 37 17 17
15 46 -4 59 -9 6 -97 12 -99 7z m68 -45 c2 -6 -3 -13 -12 -16 -10 -5 -15 0
-15 14 0 21 21 22 27 2z"/>
<path d="M585 400 c-46 -50 -15 -130 50 -130 66 0 101 84 55 130 -26 26 -81
26 -105 0z m74 -39 c13 -24 -9 -57 -33 -48 -16 6 -22 47 -9 60 12 13 32 7 42
-12z"/>
<path d="M730 345 l0 -75 46 0 c25 0 54 5 65 10 23 13 25 43 3 61 -13 11 -13
14 -1 21 21 11 10 45 -16 52 -12 3 -39 6 -59 6 l-38 0 0 -75z m72 30 c0 -5 -5
-11 -11 -13 -6 -2 -11 4 -11 13 0 9 5 15 11 13 6 -2 11 -8 11 -13z m8 -60 c0
-8 -7 -15 -15 -15 -8 0 -15 7 -15 15 0 8 7 15 15 15 8 0 15 -7 15 -15z"/>
</g>
</svg>
